<svg width="156" height="60" viewBox="0 0 156 60" fill="none" xmlns="http://www.w3.org/2000/svg">
<path d="M13.1469 43.4C6.48021 43.4 3.14688 39.9333 3.14688 33C3.14688 29.5867 3.92021 27 5.46688 25.24C7.01354 23.48 9.17354 22.6 11.9469 22.6C14.6935 22.6 16.8402 23.4533 18.3869 25.16C19.9602 26.8667 20.7469 29.3467 20.7469 32.6V33.6L19.5469 34.8H8.74688C8.74688 38.1333 10.3469 39.8 13.5469 39.8C14.6669 39.8 15.6935 39.5333 16.6269 39C17.0002 38.8133 17.3735 38.5467 17.7469 38.2H18.1469L19.9469 41.4C19.2002 41.8533 18.5602 42.1867 18.0269 42.4C16.4269 43.0667 14.8002 43.4 13.1469 43.4ZM15.1469 31.2C15.1469 29.6 14.8269 28.3733 14.1869 27.52C13.5735 26.64 12.8269 26.2 11.9469 26.2C11.0669 26.2 10.3069 26.64 9.66688 27.52C9.05354 28.3733 8.74688 29.6 8.74688 31.2H15.1469ZM22.9281 23H28.2081L31.8081 35.4C31.9148 35.8 31.9948 36.2667 32.0481 36.8L32.1281 37.6H32.2881L32.3681 36.8C32.4215 36.2933 32.5015 35.8267 32.6081 35.4L36.2081 23H41.3681L34.7681 43H29.5281L22.9281 23ZM53.5766 43.4C46.9099 43.4 43.5766 39.9333 43.5766 33C43.5766 29.5867 44.3499 27 45.8966 25.24C47.4432 23.48 49.6032 22.6 52.3766 22.6C55.1232 22.6 57.2699 23.4533 58.8166 25.16C60.3899 26.8667 61.1766 29.3467 61.1766 32.6V33.6L59.9766 34.8H49.1766C49.1766 38.1333 50.7766 39.8 53.9766 39.8C55.0966 39.8 56.1232 39.5333 57.0566 39C57.4299 38.8133 57.8032 38.5467 58.1766 38.2H58.5766L60.3766 41.4C59.6299 41.8533 58.9899 42.1867 58.4566 42.4C56.8566 43.0667 55.2299 43.4 53.5766 43.4ZM55.5766 31.2C55.5766 29.6 55.2566 28.3733 54.6166 27.52C54.0032 26.64 53.2566 26.2 52.3766 26.2C51.4966 26.2 50.7366 26.64 50.0966 27.52C49.4832 28.3733 49.1766 29.6 49.1766 31.2H55.5766ZM65.5578 23H69.5578L69.9578 25.4H70.1578C70.4245 25 70.8778 24.5333 71.5178 24C72.7711 23.0667 74.1178 22.6 75.5578 22.6C77.9845 22.6 79.8511 23.2667 81.1578 24.6C82.4911 25.9067 83.1578 27.7733 83.1578 30.2V43H77.5578V30.2C77.5578 28.9467 77.2911 28 76.7578 27.36C76.2245 26.72 75.4911 26.4 74.5578 26.4C73.6778 26.4 72.8378 26.8 72.0378 27.6C71.7711 27.92 71.4778 28.32 71.1578 28.8V43H65.5578V23ZM96.3656 43.4C94.0723 43.4 92.259 42.7733 90.9256 41.52C89.619 40.2667 88.9656 38.6267 88.9656 36.6V26.6H86.3656V24.2L92.3656 18.2H94.5656V23H99.1656V26.6H94.5656V36.6C94.5656 37.6667 94.7656 38.4667 95.1656 39C95.5656 39.5333 96.099 39.8 96.7656 39.8C97.5656 39.8 98.3523 39.5333 99.1256 39C99.4723 38.76 99.819 38.4933 100.166 38.2H100.566L102.366 41.4C101.672 41.8533 101.072 42.1867 100.566 42.4C99.1256 43.0667 97.7256 43.4 96.3656 43.4ZM105.167 16.6L106.767 15H110.767V24.4C111.034 24.1333 111.421 23.84 111.927 23.52C112.994 22.9067 114.074 22.6 115.167 22.6C117.594 22.6 119.461 23.2667 120.767 24.6C122.101 25.9067 122.767 27.7733 122.767 30.2V43H117.167V30.2C117.167 28.9467 116.901 28 116.367 27.36C115.834 26.72 115.101 26.4 114.167 26.4C113.287 26.4 112.447 26.8 111.647 27.6C111.381 27.92 111.087 28.32 110.767 28.8V43H105.167V16.6ZM130.975 20.4C130.175 20.4 129.468 20.1067 128.855 19.52C128.268 18.9067 127.975 18.2 127.975 17.4C127.975 16.6 128.268 15.9067 128.855 15.32C129.468 14.7067 130.175 14.4 130.975 14.4C131.775 14.4 132.468 14.7067 133.055 15.32C133.668 15.9067 133.975 16.6 133.975 17.4C133.975 18.2 133.668 18.9067 133.055 19.52C132.468 20.1067 131.775 20.4 130.975 20.4ZM128.175 43V23H133.775V43H128.175ZM145.986 43.4C143.879 43.4 141.906 43.0667 140.066 42.4C139.373 42.16 138.613 41.8267 137.786 41.4L139.586 38.2H139.986C140.493 38.52 140.973 38.7867 141.426 39C142.546 39.5333 143.866 39.8 145.386 39.8C146.719 39.8 147.679 39.6 148.266 39.2C148.879 38.7733 149.186 38.2267 149.186 37.56C149.186 36.92 148.853 36.4133 148.186 36.04C147.519 35.6667 146.493 35.2667 145.106 34.84C143.639 34.36 142.453 33.9067 141.546 33.48C140.639 33.0533 139.853 32.44 139.186 31.64C138.519 30.84 138.186 29.8267 138.186 28.6C138.186 26.8133 138.893 25.3733 140.306 24.28C141.719 23.16 143.813 22.6 146.586 22.6C148.266 22.6 150.079 22.9333 152.026 23.6C152.693 23.84 153.413 24.1733 154.186 24.6L152.386 27.8H151.986C151.506 27.4533 151.053 27.1867 150.626 27C149.506 26.4667 148.293 26.2 146.986 26.2C145.946 26.2 145.146 26.4 144.586 26.8C144.053 27.1733 143.786 27.64 143.786 28.2C143.786 28.8133 144.106 29.3067 144.746 29.68C145.413 30.0533 146.453 30.4667 147.866 30.92C149.279 31.3733 150.453 31.8267 151.386 32.28C152.319 32.7067 153.119 33.32 153.786 34.12C154.453 34.92 154.786 35.9333 154.786 37.16C154.786 39.08 154.066 40.6 152.626 41.72C151.186 42.84 148.973 43.4 145.986 43.4Z" fill="black"/>
</svg>
