<svg width="90" height="66" viewBox="0 0 90 66" fill="none" xmlns="http://www.w3.org/2000/svg">
<g filter="url(#filter0_d_21620_861)">
<path d="M14.3813 29.4C7.71458 29.4 4.38125 25.9333 4.38125 19C4.38125 15.5867 5.15458 13 6.70125 11.24C8.24792 9.48 10.4079 8.6 13.1813 8.6C15.9279 8.6 18.0746 9.45333 19.6213 11.16C21.1946 12.8667 21.9813 15.3467 21.9813 18.6V19.6L20.7813 20.8H9.98125C9.98125 24.1333 11.5813 25.8 14.7813 25.8C15.9013 25.8 16.9279 25.5333 17.8613 25C18.2346 24.8133 18.6079 24.5467 18.9813 24.2H19.3813L21.1813 27.4C20.4346 27.8533 19.7946 28.1867 19.2613 28.4C17.6613 29.0667 16.0346 29.4 14.3813 29.4ZM16.3813 17.2C16.3813 15.6 16.0613 14.3733 15.4213 13.52C14.8079 12.64 14.0613 12.2 13.1813 12.2C12.3013 12.2 11.5413 12.64 10.9013 13.52C10.2879 14.3733 9.98125 15.6 9.98125 17.2H16.3813ZM24.1625 9H29.4425L33.0425 21.4C33.1492 21.8 33.2292 22.2667 33.2825 22.8L33.3625 23.6H33.5225L33.6025 22.8C33.6558 22.2933 33.7358 21.8267 33.8425 21.4L37.4425 9H42.6025L36.0025 29H30.7625L24.1625 9ZM54.8109 29.4C48.1443 29.4 44.8109 25.9333 44.8109 19C44.8109 15.5867 45.5843 13 47.1309 11.24C48.6776 9.48 50.8376 8.6 53.6109 8.6C56.3576 8.6 58.5043 9.45333 60.0509 11.16C61.6243 12.8667 62.4109 15.3467 62.4109 18.6V19.6L61.2109 20.8H50.4109C50.4109 24.1333 52.0109 25.8 55.2109 25.8C56.3309 25.8 57.3576 25.5333 58.2909 25C58.6643 24.8133 59.0376 24.5467 59.4109 24.2H59.8109L61.6109 27.4C60.8643 27.8533 60.2243 28.1867 59.6909 28.4C58.0909 29.0667 56.4643 29.4 54.8109 29.4ZM56.8109 17.2C56.8109 15.6 56.4909 14.3733 55.8509 13.52C55.2376 12.64 54.4909 12.2 53.6109 12.2C52.7309 12.2 51.9709 12.64 51.3309 13.52C50.7176 14.3733 50.4109 15.6 50.4109 17.2H56.8109ZM66.7922 9H70.7922L71.1922 11.4H71.3922C71.6589 11 72.1122 10.5333 72.7522 10C74.0055 9.06667 75.3522 8.6 76.7922 8.6C79.2189 8.6 81.0855 9.26667 82.3922 10.6C83.7255 11.9067 84.3922 13.7733 84.3922 16.2V29H78.7922V16.2C78.7922 14.9467 78.5255 14 77.9922 13.36C77.4589 12.72 76.7255 12.4 75.7922 12.4C74.9122 12.4 74.0722 12.8 73.2722 13.6C73.0055 13.92 72.7122 14.32 72.3922 14.8V29H66.7922V9ZM27.3656 57.4C25.0723 57.4 23.259 56.7733 21.9256 55.52C20.619 54.2667 19.9656 52.6267 19.9656 50.6V40.6H17.3656V38.2L23.3656 32.2H25.5656V37H30.1656V40.6H25.5656V50.6C25.5656 51.6667 25.7656 52.4667 26.1656 53C26.5656 53.5333 27.099 53.8 27.7656 53.8C28.5656 53.8 29.3523 53.5333 30.1256 53C30.4723 52.76 30.819 52.4933 31.1656 52.2H31.5656L33.3656 55.4C32.6723 55.8533 32.0723 56.1867 31.5656 56.4C30.1256 57.0667 28.7256 57.4 27.3656 57.4ZM36.1672 30.6L37.7672 29H41.7672V38.4C42.0339 38.1333 42.4205 37.84 42.9272 37.52C43.9939 36.9067 45.0739 36.6 46.1672 36.6C48.5939 36.6 50.4605 37.2667 51.7672 38.6C53.1005 39.9067 53.7672 41.7733 53.7672 44.2V57H48.1672V44.2C48.1672 42.9467 47.9005 42 47.3672 41.36C46.8339 40.72 46.1005 40.4 45.1672 40.4C44.2872 40.4 43.4472 40.8 42.6472 41.6C42.3805 41.92 42.0872 42.32 41.7672 42.8V57H36.1672V30.6ZM61.975 34.4C61.175 34.4 60.4683 34.1067 59.855 33.52C59.2683 32.9067 58.975 32.2 58.975 31.4C58.975 30.6 59.2683 29.9067 59.855 29.32C60.4683 28.7067 61.175 28.4 61.975 28.4C62.775 28.4 63.4683 28.7067 64.055 29.32C64.6683 29.9067 64.975 30.6 64.975 31.4C64.975 32.2 64.6683 32.9067 64.055 33.52C63.4683 34.1067 62.775 34.4 61.975 34.4ZM59.175 57V37H64.775V57H59.175ZM76.9859 57.4C74.8793 57.4 72.9059 57.0667 71.0659 56.4C70.3726 56.16 69.6126 55.8267 68.7859 55.4L70.5859 52.2H70.9859C71.4926 52.52 71.9726 52.7867 72.4259 53C73.5459 53.5333 74.8659 53.8 76.3859 53.8C77.7193 53.8 78.6793 53.6 79.2659 53.2C79.8793 52.7733 80.1859 52.2267 80.1859 51.56C80.1859 50.92 79.8526 50.4133 79.1859 50.04C78.5193 49.6667 77.4926 49.2667 76.1059 48.84C74.6393 48.36 73.4526 47.9067 72.5459 47.48C71.6393 47.0533 70.8526 46.44 70.1859 45.64C69.5193 44.84 69.1859 43.8267 69.1859 42.6C69.1859 40.8133 69.8926 39.3733 71.3059 38.28C72.7193 37.16 74.8126 36.6 77.5859 36.6C79.2659 36.6 81.0793 36.9333 83.0259 37.6C83.6926 37.84 84.4126 38.1733 85.1859 38.6L83.3859 41.8H82.9859C82.5059 41.4533 82.0526 41.1867 81.6259 41C80.5059 40.4667 79.2926 40.2 77.9859 40.2C76.9459 40.2 76.1459 40.4 75.5859 40.8C75.0526 41.1733 74.7859 41.64 74.7859 42.2C74.7859 42.8133 75.1059 43.3067 75.7459 43.68C76.4126 44.0533 77.4526 44.4667 78.8659 44.92C80.2793 45.3733 81.4526 45.8267 82.3859 46.28C83.3193 46.7067 84.1193 47.32 84.7859 48.12C85.4526 48.92 85.7859 49.9333 85.7859 51.16C85.7859 53.08 85.0659 54.6 83.6259 55.72C82.1859 56.84 79.9726 57.4 76.9859 57.4Z" fill="black"/>
</g>
<defs>
<filter id="filter0_d_21620_861" x="0.381256" y="8.59998" width="89.4047" height="56.8" filterUnits="userSpaceOnUse" color-interpolation-filters="sRGB">
<feFlood flood-opacity="0" result="BackgroundImageFix"/>
<feColorMatrix in="SourceAlpha" type="matrix" values="0 0 0 0 0 0 0 0 0 0 0 0 0 0 0 0 0 0 127 0" result="hardAlpha"/>
<feOffset dy="4"/>
<feGaussianBlur stdDeviation="2"/>
<feComposite in2="hardAlpha" operator="out"/>
<feColorMatrix type="matrix" values="0 0 0 0 1 0 0 0 0 1 0 0 0 0 1 0 0 0 0.4 0"/>
<feBlend mode="normal" in2="BackgroundImageFix" result="effect1_dropShadow_21620_861"/>
<feBlend mode="normal" in="SourceGraphic" in2="effect1_dropShadow_21620_861" result="shape"/>
</filter>
</defs>
</svg>
