<svg width="85" height="60" viewBox="0 0 85 60" fill="none" xmlns="http://www.w3.org/2000/svg">
<path d="M12.3813 29.4C5.71458 29.4 2.38125 25.9333 2.38125 19C2.38125 15.5867 3.15458 13 4.70125 11.24C6.24792 9.48 8.40792 8.6 11.1813 8.6C13.9279 8.6 16.0746 9.45333 17.6213 11.16C19.1946 12.8667 19.9813 15.3467 19.9813 18.6V19.6L18.7813 20.8H7.98125C7.98125 24.1333 9.58125 25.8 12.7813 25.8C13.9013 25.8 14.9279 25.5333 15.8613 25C16.2346 24.8133 16.6079 24.5467 16.9813 24.2H17.3813L19.1813 27.4C18.4346 27.8533 17.7946 28.1867 17.2613 28.4C15.6613 29.0667 14.0346 29.4 12.3813 29.4ZM14.3813 17.2C14.3813 15.6 14.0613 14.3733 13.4213 13.52C12.8079 12.64 12.0613 12.2 11.1813 12.2C10.3013 12.2 9.54125 12.64 8.90125 13.52C8.28792 14.3733 7.98125 15.6 7.98125 17.2H14.3813ZM22.1625 9H27.4425L31.0425 21.4C31.1492 21.8 31.2292 22.2667 31.2825 22.8L31.3625 23.6H31.5225L31.6025 22.8C31.6558 22.2933 31.7358 21.8267 31.8425 21.4L35.4425 9H40.6025L34.0025 29H28.7625L22.1625 9ZM52.8109 29.4C46.1443 29.4 42.8109 25.9333 42.8109 19C42.8109 15.5867 43.5843 13 45.1309 11.24C46.6776 9.48 48.8376 8.6 51.6109 8.6C54.3576 8.6 56.5043 9.45333 58.0509 11.16C59.6243 12.8667 60.4109 15.3467 60.4109 18.6V19.6L59.2109 20.8H48.4109C48.4109 24.1333 50.0109 25.8 53.2109 25.8C54.3309 25.8 55.3576 25.5333 56.2909 25C56.6643 24.8133 57.0376 24.5467 57.4109 24.2H57.8109L59.6109 27.4C58.8643 27.8533 58.2243 28.1867 57.6909 28.4C56.0909 29.0667 54.4643 29.4 52.8109 29.4ZM54.8109 17.2C54.8109 15.6 54.4909 14.3733 53.8509 13.52C53.2376 12.64 52.4909 12.2 51.6109 12.2C50.7309 12.2 49.9709 12.64 49.3309 13.52C48.7176 14.3733 48.4109 15.6 48.4109 17.2H54.8109ZM64.7922 9H68.7922L69.1922 11.4H69.3922C69.6589 11 70.1122 10.5333 70.7522 10C72.0055 9.06667 73.3522 8.6 74.7922 8.6C77.2189 8.6 79.0855 9.26667 80.3922 10.6C81.7255 11.9067 82.3922 13.7733 82.3922 16.2V29H76.7922V16.2C76.7922 14.9467 76.5255 14 75.9922 13.36C75.4589 12.72 74.7255 12.4 73.7922 12.4C72.9122 12.4 72.0722 12.8 71.2722 13.6C71.0055 13.92 70.7122 14.32 70.3922 14.8V29H64.7922V9ZM25.3656 57.4C23.0723 57.4 21.259 56.7733 19.9256 55.52C18.619 54.2667 17.9656 52.6267 17.9656 50.6V40.6H15.3656V38.2L21.3656 32.2H23.5656V37H28.1656V40.6H23.5656V50.6C23.5656 51.6667 23.7656 52.4667 24.1656 53C24.5656 53.5333 25.099 53.8 25.7656 53.8C26.5656 53.8 27.3523 53.5333 28.1256 53C28.4723 52.76 28.819 52.4933 29.1656 52.2H29.5656L31.3656 55.4C30.6723 55.8533 30.0723 56.1867 29.5656 56.4C28.1256 57.0667 26.7256 57.4 25.3656 57.4ZM34.1672 30.6L35.7672 29H39.7672V38.4C40.0339 38.1333 40.4205 37.84 40.9272 37.52C41.9939 36.9067 43.0739 36.6 44.1672 36.6C46.5939 36.6 48.4605 37.2667 49.7672 38.6C51.1005 39.9067 51.7672 41.7733 51.7672 44.2V57H46.1672V44.2C46.1672 42.9467 45.9005 42 45.3672 41.36C44.8339 40.72 44.1005 40.4 43.1672 40.4C42.2872 40.4 41.4472 40.8 40.6472 41.6C40.3805 41.92 40.0872 42.32 39.7672 42.8V57H34.1672V30.6ZM59.975 34.4C59.175 34.4 58.4683 34.1067 57.855 33.52C57.2683 32.9067 56.975 32.2 56.975 31.4C56.975 30.6 57.2683 29.9067 57.855 29.32C58.4683 28.7067 59.175 28.4 59.975 28.4C60.775 28.4 61.4683 28.7067 62.055 29.32C62.6683 29.9067 62.975 30.6 62.975 31.4C62.975 32.2 62.6683 32.9067 62.055 33.52C61.4683 34.1067 60.775 34.4 59.975 34.4ZM57.175 57V37H62.775V57H57.175ZM74.9859 57.4C72.8793 57.4 70.9059 57.0667 69.0659 56.4C68.3726 56.16 67.6126 55.8267 66.7859 55.4L68.5859 52.2H68.9859C69.4926 52.52 69.9726 52.7867 70.4259 53C71.5459 53.5333 72.8659 53.8 74.3859 53.8C75.7193 53.8 76.6793 53.6 77.2659 53.2C77.8793 52.7733 78.1859 52.2267 78.1859 51.56C78.1859 50.92 77.8526 50.4133 77.1859 50.04C76.5193 49.6667 75.4926 49.2667 74.1059 48.84C72.6393 48.36 71.4526 47.9067 70.5459 47.48C69.6393 47.0533 68.8526 46.44 68.1859 45.64C67.5193 44.84 67.1859 43.8267 67.1859 42.6C67.1859 40.8133 67.8926 39.3733 69.3059 38.28C70.7193 37.16 72.8126 36.6 75.5859 36.6C77.2659 36.6 79.0793 36.9333 81.0259 37.6C81.6926 37.84 82.4126 38.1733 83.1859 38.6L81.3859 41.8H80.9859C80.5059 41.4533 80.0526 41.1867 79.6259 41C78.5059 40.4667 77.2926 40.2 75.9859 40.2C74.9459 40.2 74.1459 40.4 73.5859 40.8C73.0526 41.1733 72.7859 41.64 72.7859 42.2C72.7859 42.8133 73.1059 43.3067 73.7459 43.68C74.4126 44.0533 75.4526 44.4667 76.8659 44.92C78.2793 45.3733 79.4526 45.8267 80.3859 46.28C81.3193 46.7067 82.1193 47.32 82.7859 48.12C83.4526 48.92 83.7859 49.9333 83.7859 51.16C83.7859 53.08 83.0659 54.6 81.6259 55.72C80.1859 56.84 77.9726 57.4 74.9859 57.4Z" fill="white"/>
</svg>
