<svg width="157" height="60" viewBox="0 0 157 60" fill="none" xmlns="http://www.w3.org/2000/svg">
<path d="M14.1469 43.4C7.48021 43.4 4.14688 39.9333 4.14688 33C4.14688 29.5867 4.92021 27 6.46688 25.24C8.01354 23.48 10.1735 22.6 12.9469 22.6C15.6935 22.6 17.8402 23.4533 19.3869 25.16C20.9602 26.8667 21.7469 29.3467 21.7469 32.6V33.6L20.5469 34.8H9.74688C9.74688 38.1333 11.3469 39.8 14.5469 39.8C15.6669 39.8 16.6935 39.5333 17.6269 39C18.0002 38.8133 18.3735 38.5467 18.7469 38.2H19.1469L20.9469 41.4C20.2002 41.8533 19.5602 42.1867 19.0269 42.4C17.4269 43.0667 15.8002 43.4 14.1469 43.4ZM16.1469 31.2C16.1469 29.6 15.8269 28.3733 15.1869 27.52C14.5735 26.64 13.8269 26.2 12.9469 26.2C12.0669 26.2 11.3069 26.64 10.6669 27.52C10.0535 28.3733 9.74688 29.6 9.74688 31.2H16.1469ZM23.9281 23H29.2081L32.8081 35.4C32.9148 35.8 32.9948 36.2667 33.0481 36.8L33.1281 37.6H33.2881L33.3681 36.8C33.4215 36.2933 33.5015 35.8267 33.6081 35.4L37.2081 23H42.3681L35.7681 43H30.5281L23.9281 23ZM54.5766 43.4C47.9099 43.4 44.5766 39.9333 44.5766 33C44.5766 29.5867 45.3499 27 46.8966 25.24C48.4432 23.48 50.6032 22.6 53.3766 22.6C56.1232 22.6 58.2699 23.4533 59.8166 25.16C61.3899 26.8667 62.1766 29.3467 62.1766 32.6V33.6L60.9766 34.8H50.1766C50.1766 38.1333 51.7766 39.8 54.9766 39.8C56.0966 39.8 57.1232 39.5333 58.0566 39C58.4299 38.8133 58.8032 38.5467 59.1766 38.2H59.5766L61.3766 41.4C60.6299 41.8533 59.9899 42.1867 59.4566 42.4C57.8566 43.0667 56.2299 43.4 54.5766 43.4ZM56.5766 31.2C56.5766 29.6 56.2566 28.3733 55.6166 27.52C55.0032 26.64 54.2566 26.2 53.3766 26.2C52.4966 26.2 51.7366 26.64 51.0966 27.52C50.4832 28.3733 50.1766 29.6 50.1766 31.2H56.5766ZM66.5578 23H70.5578L70.9578 25.4H71.1578C71.4245 25 71.8778 24.5333 72.5178 24C73.7711 23.0667 75.1178 22.6 76.5578 22.6C78.9845 22.6 80.8511 23.2667 82.1578 24.6C83.4911 25.9067 84.1578 27.7733 84.1578 30.2V43H78.5578V30.2C78.5578 28.9467 78.2911 28 77.7578 27.36C77.2245 26.72 76.4911 26.4 75.5578 26.4C74.6778 26.4 73.8378 26.8 73.0378 27.6C72.7711 27.92 72.4778 28.32 72.1578 28.8V43H66.5578V23ZM97.3656 43.4C95.0723 43.4 93.259 42.7733 91.9256 41.52C90.619 40.2667 89.9656 38.6267 89.9656 36.6V26.6H87.3656V24.2L93.3656 18.2H95.5656V23H100.166V26.6H95.5656V36.6C95.5656 37.6667 95.7656 38.4667 96.1656 39C96.5656 39.5333 97.099 39.8 97.7656 39.8C98.5656 39.8 99.3523 39.5333 100.126 39C100.472 38.76 100.819 38.4933 101.166 38.2H101.566L103.366 41.4C102.672 41.8533 102.072 42.1867 101.566 42.4C100.126 43.0667 98.7256 43.4 97.3656 43.4ZM106.167 16.6L107.767 15H111.767V24.4C112.034 24.1333 112.421 23.84 112.927 23.52C113.994 22.9067 115.074 22.6 116.167 22.6C118.594 22.6 120.461 23.2667 121.767 24.6C123.101 25.9067 123.767 27.7733 123.767 30.2V43H118.167V30.2C118.167 28.9467 117.901 28 117.367 27.36C116.834 26.72 116.101 26.4 115.167 26.4C114.287 26.4 113.447 26.8 112.647 27.6C112.381 27.92 112.087 28.32 111.767 28.8V43H106.167V16.6ZM131.975 20.4C131.175 20.4 130.468 20.1067 129.855 19.52C129.268 18.9067 128.975 18.2 128.975 17.4C128.975 16.6 129.268 15.9067 129.855 15.32C130.468 14.7067 131.175 14.4 131.975 14.4C132.775 14.4 133.468 14.7067 134.055 15.32C134.668 15.9067 134.975 16.6 134.975 17.4C134.975 18.2 134.668 18.9067 134.055 19.52C133.468 20.1067 132.775 20.4 131.975 20.4ZM129.175 43V23H134.775V43H129.175ZM146.986 43.4C144.879 43.4 142.906 43.0667 141.066 42.4C140.373 42.16 139.613 41.8267 138.786 41.4L140.586 38.2H140.986C141.493 38.52 141.973 38.7867 142.426 39C143.546 39.5333 144.866 39.8 146.386 39.8C147.719 39.8 148.679 39.6 149.266 39.2C149.879 38.7733 150.186 38.2267 150.186 37.56C150.186 36.92 149.853 36.4133 149.186 36.04C148.519 35.6667 147.493 35.2667 146.106 34.84C144.639 34.36 143.453 33.9067 142.546 33.48C141.639 33.0533 140.853 32.44 140.186 31.64C139.519 30.84 139.186 29.8267 139.186 28.6C139.186 26.8133 139.893 25.3733 141.306 24.28C142.719 23.16 144.813 22.6 147.586 22.6C149.266 22.6 151.079 22.9333 153.026 23.6C153.693 23.84 154.413 24.1733 155.186 24.6L153.386 27.8H152.986C152.506 27.4533 152.053 27.1867 151.626 27C150.506 26.4667 149.293 26.2 147.986 26.2C146.946 26.2 146.146 26.4 145.586 26.8C145.053 27.1733 144.786 27.64 144.786 28.2C144.786 28.8133 145.106 29.3067 145.746 29.68C146.413 30.0533 147.453 30.4667 148.866 30.92C150.279 31.3733 151.453 31.8267 152.386 32.28C153.319 32.7067 154.119 33.32 154.786 34.12C155.453 34.92 155.786 35.9333 155.786 37.16C155.786 39.08 155.066 40.6 153.626 41.72C152.186 42.84 149.973 43.4 146.986 43.4Z" fill="black"/>
</svg>
